#Unknown ASF file
:ROOT_YZX
:FOOT_3DOF
:FULLY-SPECIFIED
:DEGREES
216
root -3.18752 17.6385 -5.60041 -4.51329 -0.715089 0.937925
lfemur -12.688 -2.35859 -24.2953
ltibia 38.3242
lfoot -15.9135 0 -6.69243
ltoes -10.4062
rfemur -16.5811 -7.28567 15.2379
rtibia 77.1307
rfoot 4.35397 0 -6.31776
rtoes -4.41202
lowerback 11.4743 1.53936 -4.4162
upperback 3.24912 1.56346 0.812784
thorax -3.16869 0.790567 3.11745
lowerneck 2.38473 -12.8681 -25.3347
upperneck 10.8621 -19.1886 17.3701
head 7.10435 -9.82793 8.03779
lclavicle 2.55811e-014 -3.97569e-016
lhumerus -38.9676 13.074 79.4432
lradius 27.7868
lwrist -3.80346
lhand -10.1685 28.762
lfingers 7.12502
lthumb 15.8214 58.1355
rclavicle 2.55811e-014 -3.97569e-016
rhumerus -30.7423 -4.69004 -81.4871
rradius 36.196
rwrist 0.163037
rhand -21.4119 11.4399
rfingers 7.12502
rthumb 4.97667 -18.4817
217
root -3.16487 17.6219 -5.05223 -5.11623 -1.07944 1.63372
lfemur -9.43206 -2.06321 -25.2748
ltibia 37.4635
lfoot -17.1936 0 -6.52242
ltoes -10.5429
rfemur -20.3582 -7.10664 14.7062
rtibia 76.557
rfoot -1.82272 0 -6.87016
rtoes -5.2719
lowerback 11.6875 1.08864 -4.80821
upperback 3.1191 0.900778 0.649032
thorax -3.36549 0.469967 3.26058
lowerneck 1.09519 -12.5533 -24.5435
upperneck 12.6105 -18.526 16.4589
head 7.56334 -9.46762 7.6413
lclavicle -4.00054e-015 -1.2921e-015
lhumerus -37.3522 12.8426 79.2167
lradius 27.7224
lwrist -3.70033
lhand -10.7472 29.6009
lfingers 7.12502
lthumb 15.264 59.0177
rclavicle -4.00054e-015 -1.2921e-015
rhumerus -31.9376 -6.65486 -81.2651
rradius 33.5092
rwrist 1.43889
rhand -22.0816 12.6161
rfingers 7.12502
rthumb 4.32996 -17.3196
218
root -3.15488 17.61 -4.53152 -5.1704 -0.999987 2.55561
lfemur -6.72339 -2.15794 -26.5353
ltibia 36.3767
lfoot -18.5531 0 -6.13681
ltoes -11.7829
rfemur -24.0144 -7.41791 14.2588
rtibia 73.1576
rfoot -7.57691 0 -7.68397
rtoes -6.55593
lowerback 11.5036 0.458475 -5.61279
upperback 2.88149 -0.0270207 0.564486
thorax -3.42391 0.0207323 3.76158
lowerneck 0.688787 -12.0929 -24.1125
upperneck 13.0324 -17.8057 16.1381
head 7.53718 -9.10494 7.56758
lclavicle 3.57812e-015 4.17448e-015
lhumerus -35.8365 12.7793 79.0797
lradius 28.0593
lwrist -3.06041
lhand -11.9972 29.4079
lfingers 7.12502
lthumb 14.0597 58.9123
rclavicle 3.57812e-015 4.17448e-015
rhumerus -32.4562 -8.60546 -80.7008
rradius 30.3193
rwrist 2.54615
rhand -21.9328 13.2898
rfingers 7.12502
rthumb 4.4737 -16.6429
219
root -3.16391 17.6477 -4.0198 -5.02333 -0.645941 3.07582
lfemur -4.01423 -2.20084 -27.2024
ltibia 34.5016
lfoot -18.8883 0 -6.30914
ltoes -12.5275
rfemur -26.8395 -7.98802 14.5895
rtibia 66.8792
rfoot -11.0661 0 -8.24131
rtoes -8.58318
lowerback 11.6427 -0.332067 -6.34821
upperback 2.38218 -1.17899 0.722186
thorax -3.88086 -0.516911 4.51561
lowerneck -0.309397 -11.4907 -23.5302
upperneck 14.0942 -16.7915 15.5697
head 7.72907 -8.58694 7.39681
lclavicle -1.70458e-014 5.36719e-015
lhumerus -35.1881 11.6234 79.1835
lradius 29.643
lwrist -1.91847
lhand -10.9273 31.7583
lfingers 7.12502
lthumb 15.0905 61.1882
rclavicle -1.70458e-014 5.36719e-015
rhumerus -33.8715 -9.21231 -80.1483
rradius 28.744
rwrist 2.95892
rhand -21.475 10.8646
rfingers 7.12502
rthumb 4.91568 -19.0584
220
root -3.18621 17.7019 -3.50021 -4.6571 -0.505067 3.73385
lfemur -1.11054 -1.7943 -27.872
ltibia 31.9169
lfoot -18.4111 0 -6.60712
ltoes -12.9568
rfemur -28.7056 -8.29144 14.9584
rtibia 58.0506
rfoot -11.5289 0 -9.0981
rtoes -11.8128
lowerback 11.322 -0.791799 -7.20134
upperback 2.23244 -1.86783 0.823048
thorax -3.74252 -0.850504 5.19496
lowerneck -1.6772 -11.2718 -22.5454
upperneck 14.6681 -16.2443 15.1911
head 7.91785 -8.23766 7.131
lclavicle 7.00716e-015 3.18055e-015
lhumerus -33.4017 8.73971 79.9737
lradius 30.6655
lwrist -0.13538
lhand -12.47 30.1604
lfingers 7.12502
lthumb 13.6041 59.6959
rclavicle 7.00716e-015 3.18055e-015
rhumerus -34.6447 -11.3109 -78.5268
rradius 25.5342
rwrist 6.01411
rhand -21.1553 15.172
rfingers 7.12502
rthumb 5.22442 -14.7436
221
root -3.21821 17.772 -2.97817 -4.30688 -0.242679 4.27996
lfemur 2.04609 -1.33573 -28.3153
ltibia 28.6227
lfoot -17.6342 0 -7.09691
ltoes -14.2103
rfemur -29.1055 -8.3013 15.2972
rtibia 47.0084
rfoot -8.27371 0 -8.80987
rtoes -9.32205
lowerback 11.1478 -1.16019 -7.99628
upperback 1.86078 -2.4429 0.993577
thorax -3.91411 -1.10709 5.9054
lowerneck -2.06262 -10.7596 -21.9132
upperneck 14.9804 -15.5416 15.2464
head 7.89137 -7.85477 7.15149
lclavicle 5.71009e-014 1.35174e-014
lhumerus -32.2581 5.44423 80.8913
lradius 32.2523
lwrist 3.61074
lhand -14.1948 29.8329
lfingers 7.12502
lthumb 11.9412 59.4723
rclavicle 5.71009e-014 1.35174e-014
rhumerus -36.3484 -11.2655 -77.6822
rradius 24.7448
rwrist 6.28856
rhand -20.5405 15.1031
rfingers 7.12502
rthumb 5.81803 -14.797
222
root -3.24572 17.8067 -2.43517 -3.93025 -0.168566 4.67998
lfemur 5.65144 -0.700439 -28.5189
ltibia 24.6198
lfoot -16.7669 0 -7.71744
ltoes -15.3405
rfemur -28.2692 -6.8815 15.2455
rtibia 34.9987
rfoot -5.98156 0 -7.41383
rtoes -11.6573
lowerback 10.6592 -1.5634 -8.38379
upperback 1.85121 -2.97774 1.05266
thorax -3.54414 -1.38555 6.23095
lowerneck -3.80756 -10.4292 -20.7534
upperneck 15.8817 -14.9031 15.1061
head 8.26009 -7.42248 6.94579
lclavicle 5.81445e-015 1.90833e-014
lhumerus -30.3119 2.92808 80.9454
lradius 33.4538
lwrist 4.13078
lhand -14.2006 29.7008
lfingers 7.12502
lthumb 11.9357 59.3405
rclavicle 5.81445e-015 1.90833e-014
rhumerus -37.4453 -11.7457 -76.9538
rradius 24.1147
rwrist 7.43067
rhand -21.0484 14.4512
rfingers 7.12502
rthumb 5.32764 -15.4618
223
root -3.29093 17.8064 -1.87824 -3.59278 0.228941 5.20696
lfemur 9.55603 -0.171821 -28.6255
ltibia 20.1731
lfoot -15.7043 0 -8.98557
ltoes -15.2103
rfemur -27.0364 -2.5687 13.7597
rtibia 24.5768
rfoot -8.26777 0 -7.71831
rtoes -16.3969
lowerback 10.2059 -2.00974 -9.08202
upperback 1.70001 -3.60398 1.25019
thorax -3.28954 -1.69737 6.88672
lowerneck -4.79145 -9.96264 -20.0792
upperneck 16.5155 -14.16 14.9032
head 8.42986 -7.00421 6.84705
lclavicle 4.73604e-014 -2.38542e-015
lhumerus -29.0272 1.26238 80.6616
lradius 35.6
lwrist 1.74152
lhand -11.1054 33.4256
lfingers 7.12502
lthumb 14.9189 62.8683
rclavicle 4.73604e-014 -2.38542e-015
rhumerus -38.7799 -12.128 -75.7784
rradius 23.732
rwrist 7.77429
rhand -21.0823 14.5093
rfingers 7.12502
rthumb 5.29488 -15.4046
224
root -3.34238 17.7661 -1.31158 -3.24258 1.13646 5.07701
lfemur 12.4926 -0.496302 -28.049
ltibia 17.6617
lfoot -15.2076 0 -10.252
ltoes -15.8965
rfemur -27.0234 0.0915379 13.0449
rtibia 19.878
rfoot -8.99092 0 -9.04798
rtoes -26.1682
lowerback 9.83336 -2.6158 -8.88857
upperback 1.76627 -4.34072 1.49796
thorax -2.87201 -2.09113 7.08608
lowerneck -6.59819 -9.59333 -19.0631
upperneck 17.3296 -13.4796 14.6981
head 8.80613 -6.55705 6.6537
lclavicle -5.7896e-014 1.59028e-015
lhumerus -27.5108 -0.757238 80.4113
lradius 37.1539
lwrist 2.82384
lhand -12.2091 32.788
lfingers 7.12502
lthumb 13.8555 62.3064
rclavicle -5.7896e-014 1.59028e-015
rhumerus -39.5169 -13.3856 -74.6511
rradius 23.5031
rwrist 8.03565
rhand -20.9519 14.1232
rfingers 7.12502
rthumb 5.42083 -15.7875
225
root -3.37261 17.675 -0.759313 -2.794 0.358803 5.75889
lfemur 13.9115 -0.106018 -28.7325
ltibia 17.8385
lfoot -15.371 0 -10.4431
ltoes -20.3757
rfemur -28.1773 -1.12042 13.2349
rtibia 21.2833
rfoot -9.88307 0 -5.16633
rtoes -19.2185
lowerback 9.83851 -2.59855 -9.32578
upperback 1.57101 -4.37036 1.56101
thorax -3.03706 -2.08586 7.41321
lowerneck -7.83408 -9.11158 -18.1654
upperneck 17.968 -12.6952 14.2923
head 9.00653 -6.10891 6.4478
lclavicle 5.19325e-014 -1.43125e-014
lhumerus -26.4218 -1.33634 80.087
lradius 38.354
lwrist 2.60036
lhand -13.127 28.4545
lfingers 7.12502
lthumb 12.9708 58.0313
rclavicle 5.19325e-014 -1.43125e-014
rhumerus -40.4856 -14.34 -73.3452
rradius 23.2935
rwrist 7.63688
rhand -20.8748 13.9745
rfingers 7.12502
rthumb 5.49522 -15.9343
226
root -3.42152 17.6012 -0.183307 -2.5504 -0.688521 5.80159
lfemur 14.4922 -0.611037 -29.0034
ltibia 19.9508
lfoot -15.0813 0 -10.3706
ltoes -20.7159
rfemur -28.5602 -0.553718 13.8482
rtibia 24.4719
rfoot -8.00357 0 -2.57034
rtoes -17.5897
lowerback 10.3418 -2.57666 -9.30325
upperback 1.43575 -4.3804 1.89858
thorax -3.4323 -2.06288 7.8078
lowerneck -9.00252 -8.4977 -17.8178
upperneck 18.2303 -11.6942 14.2301
head 9.10071 -5.57283 6.48737
lclavicle 2.82274e-014 -9.54166e-015
lhumerus -26.3707 -0.0187658 79.8405
lradius 40.105
lwrist 2.5442
lhand -13.6514 27.6021
lfingers 7.12502
lthumb 12.4652 57.2103
rclavicle 2.82274e-014 -9.54166e-015
rhumerus -41.4926 -15.152 -72.0079
rradius 23.9265
rwrist 6.72116
rhand -20.1718 12.4371
rfingers 7.12502
rthumb 6.17394 -17.453
227
root -3.47488 17.5987 0.455401 -2.27888 -0.678539 5.8466
lfemur 15.4709 -1.33626 -29.186
ltibia 21.5545
lfoot -12.8617 0 -9.7224
ltoes -25.8293
rfemur -28.7211 0.163795 13.8873
rtibia 27.5223
rfoot -4.75907 0 0.39024
rtoes -15.8718
lowerback 10.4877 -2.74685 -9.21951
upperback 1.32708 -4.59988 2.27088
thorax -3.55952 -2.16105 8.20023
lowerneck -10.7362 -7.69834 -16.5033
upperneck 19.1348 -10.3698 13.1757
head 9.35334 -4.88427 6.05386
lclavicle -5.4964e-014 -7.95139e-016
lhumerus -26.6122 1.41125 80.1755
lradius 41.1711
lwrist 3.03113
lhand -15.0998 29.9785
lfingers 7.12502
lthumb 11.0685 59.6666
rclavicle -5.4964e-014 -7.95139e-016
rhumerus -42.484 -17.0621 -69.9638
rradius 23.925
rwrist 7.07499
rhand -20.6646 11.8804
rfingers 7.12502
rthumb 5.69815 -18.023
228
root -3.51549 17.6643 1.13015 -1.86209 -1.78688 4.23194
lfemur 14.7693 -1.55741 -27.6971
ltibia 25.5853
lfoot -9.01347 0 -10.5233
ltoes -28.669
rfemur -28.2183 1.35537 15.8257
rtibia 28.7919
rfoot -2.47112 0 1.21026
rtoes -15.4986
lowerback 10.2768 -2.76223 -7.30973
upperback 1.13437 -4.3563 3.12168
thorax -3.77205 -2.04521 7.99385
lowerneck -11.4465 -7.16985 -16.1466
upperneck 19.4685 -9.48366 12.622
head 9.40287 -4.4699 5.9132
lclavicle 2.94201e-014 -1.51076e-014
lhumerus -27.8384 3.24858 80.9147
lradius 42.0341
lwrist 4.24276
lhand -15.0789 28.6558
lfingers 7.12502
lthumb 11.0886 58.3428
rclavicle 2.94201e-014 -1.51076e-014
rhumerus -43.5941 -17.7604 -68.0793
rradius 23.507
rwrist 6.6937
rhand -21.0173 13.4553
rfingers 7.12502
rthumb 5.35767 -16.457
229
root -3.55829 17.7049 1.83946 -1.65085 -3.16615 3.56657
lfemur 12.8976 -0.104959 -26.5788
ltibia 31.4981
lfoot -2.29327 0 -11.9204
ltoes -30.1556
rfemur -27.3814 0.646149 17.2655
rtibia 31.0318
rfoot -1.85491 0 3.22979
rtoes -14.5999
lowerback 9.89729 -2.46256 -6.32714
upperback 1.13272 -3.80602 3.60269
thorax -3.69708 -1.78758 7.86138
lowerneck -11.7812 -6.44747 -15.8707
upperneck 19.3399 -8.40565 12.4232
head 9.22018 -3.95169 5.93866
lclavicle 4.27387e-014 -4.45278e-014
lhumerus -29.1672 3.83728 81.9893
lradius 42.7692
lwrist 5.4514
lhand -14.7387 30.8168
lfingers 7.12502
lthumb 11.4167 60.486
rclavicle 4.27387e-014 -4.45278e-014
rhumerus -44.2767 -18.5819 -66.8207
rradius 23.5148
rwrist 6.14581
rhand -21.3437 12.3834
rfingers 7.12502
rthumb 5.04251 -17.5366
230
root -3.63509 17.7436 2.5304 -1.94769 -3.43561 2.6213
lfemur 9.60665 1.54905 -24.2402
ltibia 38.9456
lfoot 9.03238 0 -13.3154
ltoes -30.4837
rfemur -25.7102 0.451331 18.7063
rtibia 33.4129
rfoot -3.45138 0 5.00849
rtoes -7.4777
lowerback 10.0555 -2.42389 -5.32811
upperback 1.35562 -3.62944 4.15636
thorax -3.60807 -1.72252 7.86481
lowerneck -13.9997 -5.73218 -15.0668
upperneck 20.5904 -7.11795 11.494
head 9.79531 -3.31833 5.64692
lclavicle 4.37326e-015 3.18055e-015
lhumerus -30.5465 3.39518 83.2265
lradius 43.7587
lwrist 6.10448
lhand -13.6306 31.008
lfingers 7.12502
lthumb 12.4853 60.615
rclavicle 4.37326e-015 3.18055e-015
rhumerus -44.5294 -18.3133 -66.524
rradius 23.9266
rwrist 5.3492
rhand -20.8105 12.6496
rfingers 7.12502
rthumb 5.55729 -17.2576
